<svg width="17" height="17" viewBox="0 0 17 17" fill="none" xmlns="http://www.w3.org/2000/svg">
<circle cx="8.5" cy="8.5" r="8" fill="#EEEEEE" stroke="#AAAAAA"/>
<mask id="path-2-inside-1" fill="white">
<path fill-rule="evenodd" clip-rule="evenodd" d="M2.125 14.1224V13.8125C2.125 11.6928 6.37234 10.625 8.5 10.625C10.6277 10.625 14.875 11.6928 14.875 13.8125V14.1224C13.3175 15.887 11.0387 17 8.5 17C5.96128 17 3.68251 15.887 2.125 14.1224ZM8.5 3.54166C6.73891 3.54166 5.3125 4.96806 5.3125 6.72916C5.3125 8.49025 6.73891 9.91666 8.5 9.91666C10.2611 9.91666 11.6875 8.49025 11.6875 6.72916C11.6875 4.96806 10.2611 3.54166 8.5 3.54166Z"/>
</mask>
<path fill-rule="evenodd" clip-rule="evenodd" d="M2.125 14.1224V13.8125C2.125 11.6928 6.37234 10.625 8.5 10.625C10.6277 10.625 14.875 11.6928 14.875 13.8125V14.1224C13.3175 15.887 11.0387 17 8.5 17C5.96128 17 3.68251 15.887 2.125 14.1224ZM8.5 3.54166C6.73891 3.54166 5.3125 4.96806 5.3125 6.72916C5.3125 8.49025 6.73891 9.91666 8.5 9.91666C10.2611 9.91666 11.6875 8.49025 11.6875 6.72916C11.6875 4.96806 10.2611 3.54166 8.5 3.54166Z" fill="#EEEEEE"/>
<path d="M2.125 14.1224H1.125V14.5006L1.37526 14.7841L2.125 14.1224ZM14.875 14.1224L15.6247 14.7841L15.875 14.5006V14.1224H14.875ZM3.125 14.1224V13.8125H1.125V14.1224H3.125ZM3.125 13.8125C3.125 13.6499 3.19853 13.4334 3.50012 13.1551C3.8085 12.8704 4.28363 12.5936 4.8865 12.3521C6.09384 11.8685 7.56118 11.625 8.5 11.625V9.62499C7.31116 9.62499 5.591 9.9154 4.14276 10.4956C3.41783 10.786 2.69815 11.1736 2.14366 11.6853C1.58239 12.2034 1.125 12.9153 1.125 13.8125H3.125ZM8.5 11.625C9.43882 11.625 10.9062 11.8685 12.1135 12.3521C12.7164 12.5936 13.1915 12.8704 13.4999 13.1551C13.8015 13.4334 13.875 13.6499 13.875 13.8125H15.875C15.875 12.9153 15.4176 12.2034 14.8563 11.6853C14.3018 11.1736 13.5822 10.786 12.8572 10.4956C11.409 9.9154 9.68884 9.62499 8.5 9.62499V11.625ZM13.875 13.8125V14.1224H15.875V13.8125H13.875ZM14.1253 13.4606C12.7495 15.0193 10.7399 16 8.5 16V18C11.3375 18 13.8855 16.7547 15.6247 14.7841L14.1253 13.4606ZM8.5 16C6.26009 16 4.25047 15.0193 2.87474 13.4606L1.37526 14.7841C3.11454 16.7547 5.66246 18 8.5 18V16ZM6.3125 6.72916C6.3125 5.52035 7.29119 4.54166 8.5 4.54166V2.54166C6.18662 2.54166 4.3125 4.41578 4.3125 6.72916H6.3125ZM8.5 8.91666C7.29119 8.91666 6.3125 7.93797 6.3125 6.72916H4.3125C4.3125 9.04253 6.18662 10.9167 8.5 10.9167V8.91666ZM10.6875 6.72916C10.6875 7.93797 9.70881 8.91666 8.5 8.91666V10.9167C10.8134 10.9167 12.6875 9.04253 12.6875 6.72916H10.6875ZM8.5 4.54166C9.70881 4.54166 10.6875 5.52035 10.6875 6.72916H12.6875C12.6875 4.41578 10.8134 2.54166 8.5 2.54166V4.54166Z" fill="#AAAAAA" mask="url(#path-2-inside-1)"/>
</svg>
